<?xml version="1.0" encoding="UTF-8" standalone="no"?>
<!DOCTYPE svg PUBLIC "-//W3C//DTD SVG 1.1//EN" "http://www.w3.org/Graphics/SVG/1.1/DTD/svg11.dtd">
<svg width="100%" height="100%" viewBox="0 0 730 1027" version="1.1" xmlns="http://www.w3.org/2000/svg" xmlns:xlink="http://www.w3.org/1999/xlink" xml:space="preserve" xmlns:serif="http://www.serif.com/" style="fill-rule:evenodd;clip-rule:evenodd;stroke-linejoin:round;stroke-miterlimit:2;">
    <g transform="matrix(1,0,0,1,-1285,-57)">
        <path d="M2014.58,57.679L1285.42,57.679L1285.42,1083.37L2014.58,1083.37L2014.58,57.679ZM1772.88,92.077C1762.51,95.182 1755.02,99.797 1752.23,106.791C1750.27,119.007 1733.37,127.356 1715.84,128.17L1580.42,126.281C1561.87,126.521 1553.73,117.325 1548.55,106.921C1545.86,101.51 1539.35,95.318 1529,92.077L1360.01,92.077C1338.71,92.077 1321.42,109.367 1321.42,130.665L1321.42,918.071C1321.42,939.368 1338.71,956.659 1360.01,956.659L1939.99,956.659C1961.29,956.659 1978.58,939.368 1978.58,918.071L1978.58,130.665C1978.58,109.367 1961.29,92.077 1939.99,92.077L1772.88,92.077Z" style="fill:rgb(117,0,255);"/>
    </g>
</svg>
