<?xml version="1.0" encoding="UTF-8" standalone="no"?>
<!DOCTYPE svg PUBLIC "-//W3C//DTD SVG 1.1//EN" "http://www.w3.org/Graphics/SVG/1.1/DTD/svg11.dtd">
<svg width="100%" height="100%" viewBox="0 0 44 42" version="1.1" xmlns="http://www.w3.org/2000/svg" xmlns:xlink="http://www.w3.org/1999/xlink" xml:space="preserve" xmlns:serif="http://www.serif.com/" style="fill-rule:evenodd;clip-rule:evenodd;stroke-linejoin:round;stroke-miterlimit:2;">
    <g transform="matrix(1,0,0,1,-1905,-1014)">
        <g transform="matrix(1,0,0,1,5.39964,2.90495)">
            <g transform="matrix(0.653116,0,0,0.653116,821.11,249.297)">
                <path d="M1682.65,1168.46C1683,1167.73 1683.73,1167.27 1684.54,1167.27C1685.34,1167.27 1686.08,1167.73 1686.43,1168.46L1695.33,1186.95L1715.67,1189.7C1716.47,1189.81 1717.14,1190.37 1717.39,1191.13C1717.63,1191.9 1717.42,1192.74 1716.84,1193.3L1702.01,1207.48L1705.67,1227.68C1705.81,1228.47 1705.49,1229.28 1704.84,1229.75C1704.19,1230.22 1703.32,1230.28 1702.61,1229.9L1684.54,1220.17L1666.47,1229.9C1665.76,1230.28 1664.89,1230.22 1664.24,1229.75C1663.59,1229.28 1663.26,1228.47 1663.41,1227.68L1667.07,1207.48L1652.24,1193.3C1651.65,1192.74 1651.44,1191.9 1651.69,1191.13C1651.94,1190.37 1652.61,1189.81 1653.4,1189.7L1673.74,1186.95L1682.65,1168.46Z" style="fill:rgb(255,225,61);"/>
            </g>
        </g>
    </g>
</svg>
